<svg xmlns="http://www.w3.org/2000/svg" width="19" height="16" viewBox="0 0 19 16">
  <g fill="none" fill-rule="evenodd" transform="translate(-4)">
    <path fill="#1A99D6" d="M21.4940481,14.9947216 C21.4794077,15.1149751 21.4377568,15.2304084 21.3690796,15.3232067 C21.1945626,15.5590183 20.9117877,15.5588439 20.7372707,15.3232067 L15.6308877,8.42676529 C15.4563708,8.19095373 15.4563708,7.80898088 15.6308877,7.57316932 L20.7372707,0.676727877 C20.9117877,0.440916323 21.1948235,0.441265157 21.3690796,0.676727877 C21.4377603,0.769530913 21.4794119,0.884971352 21.4940344,1.00523141 L21.7372707,0.676727877 C21.9117877,0.440916323 22.1948235,0.441265157 22.3690796,0.676727877 C22.5435966,0.912539431 22.5435966,1.29451229 22.3690796,1.53032384 L17.7122931,7.99996731 L22.3693405,14.4696108 C22.5435966,14.7054223 22.5435966,15.0873952 22.3690796,15.3232067 C22.1945626,15.5590183 21.9117877,15.5588439 21.7372707,15.3232067 L21.4940481,14.9947216 Z" transform="matrix(-1 0 0 1 38 0)"/>
    <path stroke="#1A99D6" stroke-width="2" d="M5,8 L20,8" stroke-linecap="round"/>
  </g>
</svg>
