<svg xmlns="http://www.w3.org/2000/svg" width="30" height="16" viewBox="0 0 30 16">
  <g fill="none" fill-rule="evenodd">
    <path fill="#FFFFFF" d="M6.49404807,14.9947216 C6.47940768,15.1149751 6.43775683,15.2304084 6.36907963,15.3232067 C6.19456263,15.5590183 5.91178771,15.5588439 5.73727071,15.3232067 L0.630887747,8.42676529 C0.456370751,8.19095373 0.456370751,7.80898088 0.630887747,7.57316932 L5.73727071,0.676727877 C5.91178771,0.440916323 6.19482349,0.441265157 6.36907963,0.676727877 C6.43776035,0.769530913 6.47941194,0.884971352 6.49403442,1.00523141 L6.73727071,0.676727877 C6.91178771,0.440916323 7.19482349,0.441265157 7.36907963,0.676727877 C7.54359662,0.912539431 7.54359662,1.29451229 7.36907963,1.53032384 L2.71229314,7.99996731 L7.36934049,14.4696108 C7.54359662,14.7054223 7.54359662,15.0873952 7.36907963,15.3232067 C7.19456263,15.5590183 6.91178771,15.5588439 6.73727071,15.3232067 L6.49404807,14.9947216 Z"/>
    <path fill="#FFFFFF" d="M28.4940481,14.9947216 C28.4794077,15.1149751 28.4377568,15.2304084 28.3690796,15.3232067 C28.1945626,15.5590183 27.9117877,15.5588439 27.7372707,15.3232067 L22.6308877,8.42676529 C22.4563708,8.19095373 22.4563708,7.80898088 22.6308877,7.57316932 L27.7372707,0.676727877 C27.9117877,0.440916323 28.1948235,0.441265157 28.3690796,0.676727877 C28.4377603,0.769530913 28.4794119,0.884971352 28.4940344,1.00523141 L28.7372707,0.676727877 C28.9117877,0.440916323 29.1948235,0.441265157 29.3690796,0.676727877 C29.5435966,0.912539431 29.5435966,1.29451229 29.3690796,1.53032384 L24.7122931,7.99996731 L29.3693405,14.4696108 C29.5435966,14.7054223 29.5435966,15.0873952 29.3690796,15.3232067 C29.1945626,15.5590183 28.9117877,15.5588439 28.7372707,15.3232067 L28.4940481,14.9947216 Z" transform="matrix(-1 0 0 1 52 0)"/>
    <path stroke="#FFFFFF" stroke-width="2" d="M10,8 L20,8" stroke-linecap="round"/>
  </g>
</svg>
