<svg xmlns="http://www.w3.org/2000/svg" width="122" height="122" viewBox="0 0 122 122">
  <path fill="#FFFFFF" fill-rule="evenodd" d="M30.7087856,28.1177529 L22.8872703,28.1177529 C20.7780785,28.1177529 19.0733893,29.8238077 19.0733893,31.9270933 L19.0733893,31.9270933 C19.0733893,34.033774 20.7780785,35.7381313 22.8872703,35.7381313 L22.8872703,35.7381313 L87.7300455,35.7381313 C89.8375377,35.7381313 91.542227,34.033774 91.542227,31.9270933 L91.542227,31.9270933 C91.542227,14.7477149 77.8520258,0.769947996 61.0277798,0.769947996 L61.0277798,0.769947996 C45.3626545,0.769947996 32.4185736,12.7513761 30.7087856,28.1177529 M61.0277798,8.3903264 C72.3878424,8.3903264 81.8409646,16.9460642 83.6170366,28.1177529 L83.6170366,28.1177529 L38.3977328,28.1177529 C40.0548335,16.9647375 49.5708405,8.3903264 61.0277798,8.3903264 M80.100584,41.9936658 C80.100584,55.0785125 70.0339097,64.8531034 61.0277798,64.8531034 L61.0277798,64.8531034 C52.0267487,64.8531034 41.9583748,55.0785125 41.9583748,41.9936658 L41.9583748,41.9936658 C41.9583748,39.8886827 40.251986,38.1860229 38.1427942,38.1860229 L38.1427942,38.1860229 C36.0370017,38.1860229 34.3306128,39.8886827 34.3306128,41.9936658 L34.3306128,41.9936658 C34.3306128,58.232592 46.809006,72.4734818 61.0277798,72.4734818 L61.0277798,72.4734818 C75.2499528,72.4734818 87.7300455,58.232592 87.7300455,41.9936658 L87.7300455,41.9936658 C87.7300455,39.8886827 86.0219571,38.1860229 83.9161646,38.1860229 L83.9161646,38.1860229 C81.8069728,38.1860229 80.100584,39.8886827 80.100584,41.9936658 M76.4855551,82.6962305 C76.4549624,82.7862016 73.3973992,91.5218815 61.0277798,91.5218815 L61.0277798,91.5218815 C48.8723088,91.5218815 45.6957742,83.023861 45.5751033,82.6962305 L45.5751033,82.6962305 C45.0023413,80.9698048 43.2585615,79.9173133 41.4858887,80.1227189 L41.4858887,80.1227189 C10.633223,83.9728009 5.26591635,92.3418064 3.90794357,98.3002667 L3.90794357,98.3002667 C2.71653065,103.557632 0.175642915,116.914089 0.0685687157,117.479379 L0.0685687157,117.479379 C-0.327435862,119.547016 1.03223651,121.541657 3.10403728,121.932097 L3.10403728,121.932097 C3.34537913,121.976234 3.58672097,122 3.81786527,122 L3.81786527,122 C5.61603198,122 7.21534661,120.728522 7.56206306,118.900243 L7.56206306,118.900243 C7.5909561,118.76274 10.1862307,105.114301 11.3521498,99.9859507 L11.3521498,99.9859507 C12.9276701,93.0327162 28.7644541,89.5985381 39.7489072,88.0401715 L39.7489072,88.0401715 C42.1895191,92.1618643 48.2111681,99.1422599 61.0277798,99.1422599 L61.0277798,99.1422599 C73.8511898,99.1422599 79.8711393,92.1601667 82.3134507,88.0401715 L82.3134507,88.0401715 C95.0535808,89.826012 109.287651,93.2958391 110.694912,99.9350237 L110.694912,99.9350237 C111.813242,105.185599 114.500295,118.918916 114.500295,118.918916 L114.500295,118.918916 L121.986991,117.460706 C121.986991,117.460706 119.286342,103.639115 118.159513,98.3494961 L118.159513,98.3494961 C116.781145,91.876673 111.267674,83.9558253 80.5730701,80.1227189 L80.5730701,80.1227189 C80.4235062,80.1057432 80.2773414,80.0972554 80.1277774,80.0972554 L80.1277774,80.0972554 C78.5199648,80.0972554 77.0073293,81.1208883 76.4855551,82.6962305"/>
</svg>
