<svg width="168" height="70" viewBox="0 0 168 70" xmlns="http://www.w3.org/2000/svg" xmlns:xlink="http://www.w3.org/1999/xlink"><defs><path id="a" d="M0 20.307V.63h12.657v19.677H0z"/><path id="c" d="M5.513 8.067H.958V1.08h4.555z"/></defs><g fill="none" fill-rule="evenodd"><g transform="translate(0 31.98)"><mask id="b" fill="#fff"><use xlink:href="#a"/></mask><path d="M11.108 18.628c-1.034 1.12-2.655 1.68-4.863 1.68-.64 0-1.296-.072-1.964-.214-.667-.14-1.272-.37-1.817-.69-.542-.316-.992-.736-1.347-1.25-.356-.515-.554-1.147-.59-1.894h2.266c.018.41.147.755.39 1.04.24.285.534.517.882.695.347.176.726.308 1.138.387.41.08.802.12 1.178.12.75 0 1.382-.128 1.9-.386.517-.258.946-.615 1.285-1.068.34-.454.583-1.003.735-1.64.152-.643.23-1.345.23-2.11v-.907h-.055c-.39.855-.984 1.48-1.777 1.882-.795.402-1.635.6-2.527.6-1.03 0-1.93-.187-2.697-.56-.767-.372-1.408-.874-1.926-1.507-.516-.63-.903-1.37-1.16-2.214C.127 9.747 0 8.854 0 7.91c0-.816.105-1.655.32-2.52.212-.862.57-1.644 1.07-2.348.498-.7 1.156-1.28 1.977-1.734C4.185.856 5.194.63 6.387.63c.873 0 1.675.19 2.405.572.73.383 1.3.956 1.71 1.72h.027V.95h2.127v12.61c0 2.258-.515 3.947-1.55 5.068M8.22 12.43c.526-.31.948-.722 1.27-1.23.32-.507.557-1.08.708-1.72.153-.64.23-1.28.23-1.92 0-.606-.074-1.2-.217-1.79-.14-.587-.367-1.115-.68-1.587-.312-.47-.718-.85-1.218-1.135-.5-.284-1.104-.425-1.82-.425-.728 0-1.353.137-1.87.414-.517.274-.94.644-1.272 1.107-.328.462-.57.996-.72 1.6-.154.606-.23 1.237-.23 1.895 0 .622.063 1.243.188 1.867.125.622.34 1.186.643 1.694.302.508.704.92 1.203 1.23.5.31 1.122.466 1.874.466.75 0 1.388-.156 1.912-.466" fill="#FEFEFE" mask="url(#b)"/></g><path d="M28.003 47.006c-.592 0-1.06-.166-1.41-.494-.348-.33-.524-.867-.524-1.615-.623.748-1.347 1.286-2.175 1.615-.828.328-1.722.494-2.682.494-.624 0-1.21-.068-1.76-.2-.553-.135-1.04-.357-1.458-.666-.416-.314-.747-.71-.986-1.202-.242-.488-.36-1.08-.36-1.775 0-.78.133-1.42.4-1.92.265-.496.617-.9 1.053-1.213.437-.312.934-.547 1.495-.708.562-.16 1.136-.292 1.724-.4.622-.123 1.215-.217 1.775-.28.56-.06 1.056-.15 1.483-.267.426-.114.765-.283 1.013-.508.25-.22.374-.543.374-.972 0-.5-.093-.898-.28-1.2-.188-.302-.428-.532-.723-.693-.293-.16-.624-.266-.988-.322-.367-.052-.728-.08-1.084-.08-.96 0-1.765.187-2.408.55-.64.365-.988 1.06-1.043 2.076h-2.263c.035-.854.213-1.575.533-2.162.323-.587.75-1.064 1.283-1.43.537-.363 1.15-.626 1.846-.786.693-.16 1.423-.24 2.19-.24.625 0 1.243.044 1.86.134.613.088 1.17.27 1.67.546.5.275.9.66 1.202 1.16.303.496.454 1.145.454 1.945v7.09c0 .53.03.925.095 1.172.062.25.27.373.627.373.195 0 .426-.042.694-.133v1.764c-.39.23-.932.346-1.627.346m-3.19-6.954c-.46.098-.947.18-1.454.242-.508.06-1.02.133-1.534.21-.516.082-.98.21-1.388.39-.41.177-.743.43-1 .758-.258.332-.387.78-.387 1.35 0 .372.076.688.227.946.152.258.348.468.587.627.24.16.526.274.854.345.328.074.663.108 1 .108.748 0 1.388-.102 1.92-.305.534-.205.97-.464 1.31-.775.336-.312.585-.65.748-1.014.158-.365.237-.707.237-1.027v-2.322c-.283.213-.657.37-1.12.467M38.955 32.932v1.993h-2.743v8.568c0 .268.023.483.068.643.043.158.126.285.252.372.123.09.296.148.52.175.22.026.51.04.864.04h1.04v1.992H37.22c-.586 0-1.088-.04-1.506-.12-.417-.078-.754-.226-1.012-.438-.258-.216-.45-.518-.573-.91-.123-.39-.186-.907-.186-1.546v-8.775h-2.347v-1.993h2.348v-4.138h2.267v4.138h2.743zM52.564 45.83c-1.033.783-2.33 1.176-3.896 1.176-1.104 0-2.06-.18-2.87-.534-.81-.355-1.49-.854-2.042-1.494-.55-.64-.964-1.404-1.24-2.29-.277-.89-.43-1.858-.466-2.91 0-1.047.16-2.006.48-2.878.32-.87.77-1.625 1.348-2.265.577-.64 1.262-1.14 2.052-1.495.793-.355 1.66-.53 2.603-.53 1.228 0 2.245.25 3.055.757.81.505 1.457 1.15 1.948 1.932.49.78.828 1.634 1.012 2.558.19.926.264 1.804.23 2.64H44.45c-.016.603.055 1.177.215 1.718.16.54.418 1.022.773 1.44.356.417.81.75 1.362 1 .55.248 1.2.372 1.948.372.962 0 1.747-.22 2.36-.666.614-.442 1.02-1.12 1.215-2.025h2.242c-.303 1.545-.97 2.71-2 3.494m-.55-8.85c-.205-.48-.484-.896-.83-1.243-.345-.347-.753-.622-1.227-.83-.47-.204-.99-.306-1.558-.306-.588 0-1.117.103-1.588.308-.47.207-.876.486-1.214.84-.337.36-.605.773-.8 1.246-.198.47-.31.975-.348 1.51h7.924c-.036-.535-.156-1.043-.36-1.524M68.82 50.607c-1.034 1.12-2.655 1.68-4.863 1.68-.64 0-1.296-.072-1.964-.214-.667-.14-1.273-.37-1.817-.69-.543-.316-.993-.735-1.348-1.25-.358-.515-.554-1.147-.59-1.894h2.266c.02.408.147.754.39 1.04.24.284.534.516.882.694.35.176.726.308 1.138.387.41.08.802.122 1.178.122.75 0 1.382-.13 1.9-.387.518-.258.945-.615 1.285-1.068.34-.454.583-1.003.736-1.64.15-.643.228-1.344.228-2.11v-.907h-.053c-.39.854-.984 1.48-1.778 1.88-.795.403-1.635.6-2.526.6-1.032 0-1.932-.186-2.7-.56-.764-.37-1.407-.873-1.922-1.506-.518-.63-.905-1.37-1.164-2.214-.258-.845-.388-1.737-.388-2.68 0-.817.107-1.656.322-2.522.214-.86.57-1.643 1.07-2.346.498-.702 1.156-1.28 1.977-1.735.82-.452 1.826-.677 3.02-.677.872 0 1.674.19 2.404.57.73.384 1.3.957 1.71 1.72h.027v-1.97h2.13v12.61c0 2.257-.516 3.946-1.55 5.067m-2.89-6.198c.528-.312.95-.723 1.27-1.23.323-.508.56-1.08.71-1.72.152-.642.23-1.282.23-1.92 0-.607-.073-1.202-.215-1.79-.144-.588-.37-1.116-.682-1.588-.313-.47-.72-.85-1.218-1.135-.5-.284-1.105-.425-1.82-.425-.73 0-1.353.137-1.872.414-.516.274-.94.644-1.27 1.107-.33.462-.57.996-.723 1.6-.15.606-.227 1.237-.227 1.895 0 .623.062 1.244.187 1.868.125.623.34 1.186.643 1.694.304.507.704.918 1.204 1.23.498.31 1.123.466 1.872.466.748 0 1.386-.156 1.91-.467M77.172 32.93v2.905h.055c.553-1.12 1.228-1.946 2.03-2.48.8-.533 1.814-.784 3.042-.746v2.402c-.91 0-1.682.122-2.323.372-.64.25-1.157.612-1.548 1.093-.392.48-.677 1.06-.855 1.747-.177.684-.267 1.47-.267 2.36v6.132H75.04V32.93h2.132zM84.528 36.994c.283-.88.71-1.644 1.282-2.293.568-.648 1.273-1.158 2.11-1.532.837-.373 1.798-.56 2.883-.56 1.104 0 2.07.187 2.9.56.826.374 1.525.884 2.095 1.533.57.65.998 1.414 1.28 2.294.288.88.43 1.826.43 2.837 0 1.018-.142 1.96-.43 2.83-.282.87-.71 1.63-1.28 2.278-.57.65-1.27 1.156-2.095 1.52-.83.365-1.796.547-2.9.547-1.085 0-2.046-.182-2.883-.548-.837-.363-1.542-.87-2.11-1.52-.572-.647-1-1.407-1.282-2.277-.286-.87-.43-1.812-.43-2.83 0-1.01.144-1.956.43-2.836m2.31 5.06c.22.65.53 1.192.92 1.628.392.435.85.768 1.375 1 .527.23 1.084.346 1.67.346.59 0 1.146-.115 1.67-.346.527-.232.984-.565 1.377-1 .392-.436.7-.98.922-1.627.223-.648.335-1.39.335-2.227 0-.834-.112-1.578-.335-2.227-.222-.646-.53-1.193-.922-1.637-.393-.445-.85-.782-1.377-1.015-.524-.23-1.08-.347-1.67-.347-.586 0-1.143.117-1.67.348-.525.233-.983.57-1.374 1.015-.392.444-.7.99-.923 1.638-.223.65-.334 1.394-.334 2.228 0 .838.11 1.58.334 2.227M110.783 46.712l-.002-2.19h-.048c-.48.855-1.093 1.482-1.84 1.882-.748.402-1.63.6-2.642.6-.907 0-1.663-.118-2.27-.36-.604-.24-1.094-.58-1.467-1.026-.375-.445-.637-.975-.79-1.59-.148-.613-.223-1.293-.223-2.04v-9.073h2.265v9.337c0 .855.25 1.532.745 2.03.5.498 1.184.745 2.056.745.693 0 1.292-.103 1.8-.32.507-.212.93-.514 1.268-.906.337-.39.59-.85.76-1.373.17-.524.254-1.098.254-1.722v-7.79h2.266v13.797h-2.13zM120.02 32.93v1.865h.05c.374-.763.962-1.32 1.763-1.667.803-.345 1.685-.52 2.646-.52 1.068 0 2 .196 2.792.586.793.393 1.45.92 1.975 1.587.527.666.922 1.436 1.19 2.308.267.87.402 1.795.402 2.772 0 .978-.13 1.903-.39 2.772-.257.872-.65 1.633-1.175 2.28-.526.65-1.182 1.16-1.98 1.534-.79.37-1.712.56-2.763.56-.338 0-.717-.036-1.135-.107-.418-.073-.83-.188-1.243-.348-.408-.16-.797-.378-1.16-.654-.368-.278-.673-.618-.924-1.027h-.05v7.11h-2.266V32.93h2.265zm8.16 4.884c-.166-.613-.426-1.16-.774-1.64-.348-.48-.793-.86-1.336-1.147-.545-.284-1.184-.425-1.912-.425-.767 0-1.417.152-1.95.45-.536.305-.972.7-1.31 1.19-.338.488-.586 1.043-.737 1.665-.15.623-.225 1.254-.225 1.895 0 .677.08 1.33.24 1.96.16.63.414 1.185.76 1.668.35.478.8.864 1.35 1.16.555.293 1.222.438 2.006.438.786 0 1.44-.15 1.968-.454.526-.3.948-.702 1.27-1.198.32-.5.55-1.068.694-1.708.14-.64.214-1.297.214-1.972 0-.64-.085-1.266-.255-1.882zM154.11 13.487l4.132-2.537 8.192 4.567-3.48 2.83" fill="#FEFEFE"/><path fill="#FFF" d="M147 4.858l7.687 1.306 2.827 4.132-8.412-1.45"/><path fill="#FEFEFE" d="M134.167 1.958l4.857-1.596 6.888 3.625-4.28 2.03M124.014 0l-.217 4.132 9.86 2.03-.507-4.204M157.515 24.728l10.37 1.377-4.35-6.817-9.57-1.377M139.532 23.64l6.89-3.918 9.787 6.455-6.164 5.15M115.312 6.96l8.267-2.03 7.396 4.93-8.124 2.54M124.086 13.633v7.396l13.2 1.668-1.307-7.107M37.244 64.79h2.326l-.716-1.9c-.22-.577-.382-1.052-.488-1.423-.086.44-.21.877-.37 1.31l-.752 2.014zm-1.98 2.818l2.636-6.863h.977l2.81 6.863H40.65l-.8-2.078h-2.87l-.754 2.078h-.965zM42.304 67.608v-4.97h.758v.706c.364-.546.893-.82 1.582-.82.3 0 .574.054.826.16.25.11.44.25.565.426.125.174.21.382.262.623.03.154.046.43.046.82v3.055H45.5v-3.024c0-.343-.033-.6-.1-.77-.063-.17-.18-.306-.347-.407-.167-.102-.362-.153-.586-.153-.36 0-.67.114-.93.343-.26.227-.39.66-.39 1.296v2.715h-.843zM95.247 65.2l.908.23c-.19.748-.532 1.314-1.027 1.707-.494.39-1.1.586-1.813.586-.74 0-1.34-.148-1.805-.45-.463-.3-.816-.737-1.057-1.308-.24-.57-.363-1.184-.363-1.84 0-.714.137-1.336.41-1.87.273-.53.66-.934 1.164-1.21.506-.278 1.058-.415 1.665-.415.684 0 1.26.173 1.73.524.468.348.795.84.98 1.474l-.897.21c-.156-.498-.39-.863-.69-1.09-.304-.228-.683-.343-1.144-.343-.527 0-.968.128-1.323.38-.354.252-.602.59-.746 1.02-.142.425-.214.863-.214 1.316 0 .583.086 1.094.255 1.53.172.436.435.76.794.975.358.215.748.322 1.165.322.508 0 .94-.146 1.292-.44.35-.292.592-.728.715-1.306M97.718 65.122c0 .636.14 1.114.415 1.43.28.316.63.475 1.05.475.417 0 .765-.16 1.044-.478.277-.318.417-.803.417-1.455 0-.616-.14-1.08-.42-1.397-.28-.318-.625-.476-1.042-.476-.42 0-.77.158-1.05.472-.274.316-.414.792-.414 1.428m-.865 0c0-.92.256-1.602.767-2.045.427-.367.95-.552 1.562-.552.686 0 1.242.222 1.675.67.436.45.652 1.067.652 1.857 0 .64-.097 1.144-.288 1.51-.193.367-.472.65-.838.855-.368.203-.768.302-1.202.302-.694 0-1.257-.223-1.686-.67-.43-.447-.643-1.09-.643-1.928M102.498 67.608v-4.97h.753v.695c.157-.243.364-.438.624-.586.26-.148.554-.222.885-.222.366 0 .667.076.903.23.237.15.402.366.5.642.392-.58.905-.872 1.533-.872.494 0 .873.136 1.138.41.266.27.4.693.4 1.26v3.413h-.838v-3.133c0-.336-.027-.578-.083-.728-.055-.146-.154-.266-.297-.357-.144-.09-.312-.136-.505-.136-.35 0-.64.117-.87.348-.232.233-.346.607-.346 1.118v2.888h-.843v-3.23c0-.375-.068-.655-.205-.843-.137-.187-.36-.28-.675-.28-.235 0-.457.062-.657.187-.202.124-.347.308-.437.548-.09.24-.136.586-.136 1.04v2.578h-.842zM111.245 65.15c0 .64.13 1.113.39 1.42.258.304.57.458.94.458.375 0 .693-.16.96-.476.267-.316.402-.807.402-1.47 0-.636-.13-1.11-.392-1.425-.26-.315-.572-.472-.934-.472-.357 0-.674.167-.95.503-.278.335-.415.823-.415 1.463zm-.762 4.364v-6.876h.766v.645c.18-.253.386-.442.612-.57.23-.126.506-.188.83-.188.423 0 .797.11 1.122.328.326.218.57.526.736.924.164.396.247.834.247 1.308 0 .51-.09.968-.273 1.374-.184.406-.45.718-.797.935-.346.216-.714.325-1.097.325-.28 0-.53-.06-.756-.18-.223-.116-.407-.268-.55-.447v2.42h-.84zM118.987 65.114c-.305.124-.764.23-1.375.317-.347.05-.592.107-.736.17-.142.06-.255.154-.332.274-.078.12-.117.254-.117.4 0 .225.084.41.254.562.17.148.42.225.748.225.325 0 .613-.072.867-.213.25-.143.437-.336.556-.582.09-.19.137-.472.137-.843v-.308zm.07 1.88c-.312.266-.612.453-.902.562-.288.11-.597.164-.928.164-.546 0-.965-.134-1.26-.4-.29-.267-.44-.607-.44-1.022 0-.244.057-.466.167-.668.11-.2.256-.363.436-.485.18-.12.38-.213.605-.274.167-.044.416-.087.75-.127.68-.082 1.18-.18 1.502-.29l.004-.22c0-.344-.078-.586-.237-.724-.215-.194-.536-.288-.96-.288-.396 0-.688.07-.878.21-.188.138-.326.384-.418.735l-.824-.11c.075-.353.198-.64.37-.856.172-.216.42-.383.745-.5.325-.116.7-.174 1.128-.174.423 0 .767.048 1.035.15.266.098.46.225.584.375.124.152.213.344.26.574.03.144.044.402.044.777v1.124c0 .784.018 1.28.054 1.488.038.207.108.406.214.596h-.88c-.088-.175-.143-.38-.17-.613zM121.144 67.608v-4.97h.76v.706c.363-.546.89-.82 1.58-.82.3 0 .574.054.825.16.25.11.44.25.564.426.124.174.21.382.26.623.032.154.048.43.048.82v3.055h-.842v-3.024c0-.343-.032-.6-.098-.77-.066-.17-.183-.306-.348-.407-.167-.102-.365-.153-.59-.153-.357 0-.666.114-.927.343-.262.227-.39.66-.39 1.296v2.715h-.843z"/><g transform="translate(125.04 61.558)"><mask id="d" fill="#fff"><use xlink:href="#c"/></mask><path d="M1.398 7.963l-.093-.79c.184.05.344.074.48.074.19 0 .34-.03.45-.092.112-.064.206-.15.277-.264.053-.082.14-.29.257-.626.015-.047.04-.114.075-.205L.958 1.08h.908L2.9 3.956c.134.365.255.75.36 1.153.098-.388.214-.765.347-1.135L4.67 1.08h.843L3.62 6.133c-.2.546-.36.92-.472 1.128-.15.277-.32.48-.515.61-.192.13-.423.195-.692.195-.162 0-.343-.034-.542-.104" fill="#FEFEFE" mask="url(#d)"/></g><path d="M61.782 67.888c.052-.205.727-2.775 2.005-7.637l.07-.264H62.53c-.928.003-1.166.623-1.215.812-.072.26-.156.582-.265.995l-.406 1.532H56.84L56.414 65h3.77l-.96 3.704h1.34c.744-.067 1.123-.48 1.22-.816M54.8 60.798c-.06.222-.795 3.004-2.07 7.836l-.02.07h1.338c.743-.068 1.124-.482 1.22-.816.087-.34 1.826-6.954 2.075-7.902h-1.328c-.927.003-1.163.622-1.214.812M78.758 62.4c.36.874.917 2.21 1.07 2.525 1.002-.574 1.67-1.08 1.85-1.222-.752-1.988-1.29-3.054-1.46-3.37-.473.493-1.308 1.823-1.46 2.066" fill="#F0BF25"/><path d="M82.28 65.242l.04-.042c.348-.36.688-.758 1.005-1.167-.443.46-1.013 1.02-1.656 1.567-2.023 1.725-3.75 2.522-5.133 2.373-.27-.03-.467-.135-.588-.316-.208-.312-.095-.72-.08-.767.094-.52 3.254-6.01 4.16-6.798-.087-.06-.243-.135-.442-.134-.39.007-1.338 0-1.347 0 .005 0-.426.048-.83.696-.432.694-3.694 6.012-3.727 6.066-.008.012-.634.964-.28 1.497.294.447.89.456.895.456.046.008 2.89.55 6.216-1.88l.09-.067.574 1.334c.012.036.218.678 1.03.69.666.013 1.253-.002 1.503-.01l-1.43-3.498z" fill="#F0BF25"/><path d="M78.855 67.12c1.06-.474 5.464-3.44 6.95-7.095-.197-.066-.712-.18-1.032.284-.03.042-.077.128-.136.238-1.753 3.19-4.498 5.155-8.16 5.837-.048.082-.18.31-.24.532-.02.073-.073.383.044.568.053.08.13.127.24.143.88.142 1.734-.24 2.3-.493l.035-.016zM73.142 59.98c-.062.006-1.06.104-1.25.826-.2.77-1.07 4.073-1.162 4.425l1.374 3.038c.003.006.035.09.084.104.2-.46 1.437-5.177 2.257-8.386l-1.303-.005zM69.842 68.703h1.945c.008 0 .088.008.178-.023-.106-.086-.172-.23-.19-.272l-1.35-2.995-1.95-4.424c-.436-.83-1.035-.98-1.27-1.005H65.42l3.886 8.438c.095.19.37.272.534.28M64.29 68.703c.61.02 1.015-.25 1.234-.822.208-.816.727-2.664 1.007-3.657l.184-.656-1.485-3.216-2.25 8.353h1.31z" fill="#F0BF25"/></g></svg>